<svg width="64" height="64" xmlns="http://www.w3.org/2000/svg" fill="none" viewBox="0 0 64 64"><defs><linearGradient id="prefix__a" x1="4.067" x2="62.664" y1="4.327" y2="62.923" gradientUnits="userSpaceOnUse"><stop offset=".29" stop-color="#009AE5"/><stop offset=".7" stop-color="#00D980"/></linearGradient><linearGradient id="prefix__b" x1="56.329" x2="2.874" y1="-.391" y2="24.393" gradientUnits="userSpaceOnUse"><stop offset=".3" stop-color="#FF2D90"/><stop offset=".54" stop-color="#009AE5"/></linearGradient></defs><path fill="url(#prefix__a)" d="M64 59.878V25.75a4.125 4.125 0 00-2.52-3.8L24.057 6.153a4.118 4.118 0 00-1.638-.325l-18.329.15A4.124 4.124 0 000 10.103v17.665c0 .806.236 1.593.678 2.267l21.109 32.109a4.124 4.124 0 003.447 1.859h34.641A4.125 4.125 0 0064 59.878z"/><path fill="url(#prefix__b)" d="M58 14.988V4.125A4.125 4.125 0 0053.875 0H41.309c-.2 0-.4.014-.598.044L3.527 5.492A4.125 4.125 0 000 9.573v15.398a4.125 4.125 0 004.126 4.125l18.505-.005a4.13 4.13 0 001.253-.195l31.246-9.98A4.126 4.126 0 0058 14.988z"/><path fill="#FF2D90" d="M58 16.453V4.194A4.125 4.125 0 0053.81.07L43.003.008c-1.18.019-2.535.781-3.304 1.678L6.993 39.844A4.13 4.13 0 006 42.528v11.35a4.125 4.125 0 004.125 4.125h11.003c1.19 0 2.321-.514 3.104-1.409L56.98 19.17A4.124 4.124 0 0058 16.453z"/><path fill="#000" d="M52 12H12v40h40V12z"/><path fill="#fff" d="M33 44H17v3h16v-3zM20.747 31.242a7.287 7.287 0 01-2.744-2.786c-.665-1.183-.997-2.503-.997-3.961s.332-2.778.997-3.96a7.29 7.29 0 012.744-2.787c1.164-.675 2.465-1.014 3.901-1.014 1.215 0 2.33.225 3.345.675a6.862 6.862 0 012.535 1.892 6.443 6.443 0 011.355 2.793h-3.065a4.054 4.054 0 00-.895-1.431 4.038 4.038 0 00-1.431-.95 4.895 4.895 0 00-1.822-.332c-.887 0-1.687.222-2.402.665a4.61 4.61 0 00-1.677 1.827c-.404.776-.606 1.649-.606 2.62 0 .973.202 1.846.606 2.621a4.605 4.605 0 001.677 1.828c.715.443 1.515.664 2.402.664a4.88 4.88 0 001.822-.332 4.022 4.022 0 002.326-2.38h3.065a6.444 6.444 0 01-1.355 2.792 6.863 6.863 0 01-2.535 1.892c-1.015.45-2.13.675-3.345.675-1.436 0-2.736-.337-3.901-1.013v.003zm16.583-14.25v12.37h7.117v2.636H34.414V16.992h2.916z"/></svg>