<svg width="64" height="64" viewBox="0 0 53 51" xmlns="http://www.w3.org/2000/svg" xmlns:xlink="http://www.w3.org/1999/xlink" fill="none">
	<defs>
		<g id="pixso_custom_effect_0">
			<effect x="0.000000" y="4.000000" visibility="visible" fill="rgb(0,0,0)" fill-opacity="0.25" effectType="dropShadow" stdDeviation="4" radius="0" />
		</g>
		<filter id="filter_0" width="53.000000" height="51.000000" x="0.000000" y="0.000000" filterUnits="userSpaceOnUse" customEffect="url(#pixso_custom_effect_0)" color-interpolation-filters="sRGB">
			<feFlood flood-opacity="0" result="BackgroundImageFix" />
			<feOffset dx="0.000000" dy="4.000000" in="SourceAlpha" />
			<feGaussianBlur stdDeviation="1.33333337" />
			<feColorMatrix type="matrix" values="0 0 0 0 0 0 0 0 0 0 0 0 0 0 0 0 0 0 0.25 0 " />
			<feBlend result="effect_dropShadow_1" in2="BackgroundImageFix" mode="normal" />
			<feBlend result="shape" in="SourceGraphic" in2="effect_dropShadow_1" mode="normal" />
		</filter>
	</defs>
	<g filter="url(#filter_0)">
		<rect id="skland 1" width="50.000000" height="50.000000" x="1.000000" y="0.000000" />
	</g>
	<path id="矢量 1" d="M26 20.0135C25.9996 19.4197 26.1335 18.8539 26.4017 18.3161C26.6698 17.7783 27.0468 17.3193 27.5327 16.9393C28.0186 16.5592 28.5675 16.294 29.1792 16.1436C29.791 15.9931 30.4078 15.9718 31.0297 16.0794L31.0297 16.0154C31.0239 14.9311 31.4221 13.9991 32.2244 13.2192C33.0267 12.4394 34.005 12.0336 35.1592 12.0017C36.3134 11.9698 37.3154 12.321 38.1651 13.0552C39.0148 13.7894 39.4707 14.6978 39.5328 15.7805C40.1728 15.1221 40.9675 14.7954 41.9169 14.8004C42.8136 14.8001 43.5789 15.0977 44.2128 15.6932C44.8468 16.2887 45.1634 17.0075 45.1629 17.8495C45.1629 18.0193 45.1401 18.1901 45.1174 18.3502C45.3789 18.2862 45.6517 18.2435 45.9348 18.2435C46.7808 18.2445 47.5029 18.5259 48.101 19.0876C48.6992 19.6493 48.9989 20.3274 49 21.1217C48.9989 21.9161 48.6992 22.5941 48.101 23.1558C47.5029 23.7175 46.7808 23.9989 45.9348 24L30.0304 24L30.0304 23.9893C28.9018 23.9368 27.948 23.5263 27.169 22.7578C26.3899 21.9893 26.0003 21.0745 26 20.0135Z" fill="rgb(255,255,255)" fill-rule="evenodd" />
	<path id="矢量 2" d="M48.9396 33.2304C48.7501 32.4153 48.0376 31.258 47.4365 30.4419C46.7909 29.5706 45.7663 28.3912 44.5642 27.7297C44.1305 27.4868 43.6288 27.3212 43.1504 27.1676C42.9173 27.0893 42.5717 26.9799 42.4268 26.9026C41.8066 26.2868 41.2127 25.6471 40.645 24.9834C40.044 24.2888 39.6102 23.793 38.4518 22.9217C36.8372 21.7092 34.7119 20.9373 32.3281 20.6733C32.318 19.79 32.173 18.4891 32.0281 17.4974C31.9377 16.9008 31.8229 16.3089 31.6835 15.7217C31.6155 15.4572 31.5263 15.1999 31.416 14.9498C31.0035 14.0685 30.3133 13.8918 29.9464 13.8587C29.9008 13.8587 29.845 13.8477 29.8014 13.8477C29.2656 13.8477 28.798 14.0682 28.3987 14.5092C28.2974 13.8467 28.2092 13.142 28.1089 12.4585C27.9639 11.3553 27.8301 10.3084 27.6629 9.50339C27.5636 8.99649 27.4633 8.62108 27.3406 8.32397C26.8612 7.12146 25.9491 7 25.5812 7C24.2899 7 23.7771 8.29084 23.6109 8.70941C23.4217 9.18319 23.2325 9.8005 23.0433 10.5614C22.7535 11.6856 22.4413 13.2745 22.419 14.0133C22.4089 14.2883 22.3744 15.1375 23.8886 18.5222C24.2342 19.2831 24.7572 20.4083 25.27 21.3227C25.047 21.389 24.8352 21.4552 24.6122 21.5335C22.7089 22.1829 20.5714 23.4186 18.9234 24.7857C18.9119 24.7647 18.897 24.7463 18.8788 24.7305C18.4685 24.1724 18.0493 23.621 17.621 23.0763C17.1194 22.4479 16.5406 21.7413 15.6275 21.7413C15.293 21.7413 14.9819 21.8417 14.7153 22.0173C14.392 22.2381 14.169 22.5031 14.0241 22.7902C13.8467 22.5794 13.6572 22.3385 13.4342 22.0615C12.5656 20.9483 11.6089 19.5922 10.7515 18.3897C10.0947 17.4863 9.48254 16.6261 9.00314 15.9867C8.2572 15.0161 7.70078 14.3767 6.79876 14.3767C6.56565 14.3767 6.34268 14.4208 6.142 14.5092C5.86328 14.6296 5.37376 14.9388 5.15078 15.6665C4.87308 16.6151 5.02916 18.7099 5.21768 20.3089C5.63018 23.8813 6.1197 24.6201 6.27578 24.8519C6.49876 25.1932 6.93254 25.8326 11.1852 27.9385C12.6648 28.67 14.1682 29.3499 15.6954 29.9782C15.1379 32.8118 15.2829 36.9142 17.6656 39.6926C19.5467 41.8868 22.3643 43 26.0271 43C27.4298 43 28.6541 42.8354 29.467 42.736C29.545 42.725 29.623 42.7139 29.6899 42.7029C30.1014 42.6477 32.618 41.8537 34.9784 41.0045C38.4295 39.7588 40.7899 38.6778 42.0143 37.7854C42.2737 37.5961 42.5224 37.3936 42.7602 37.1782C43.2619 36.7596 43.6845 36.3852 44.62 35.9546C45.3213 35.6354 45.9558 35.6023 46.5122 35.5802C47.1811 35.5581 48.1044 35.5139 48.6832 34.6969C48.896 34.4329 49.1068 33.937 48.9396 33.2314" fill="rgb(255,255,255)" fill-rule="evenodd" />
	<path id="矢量 3" d="M29.3013 14.8566C29.8262 14.9008 30.4965 20.7864 30.1497 20.7864C29.7926 20.7864 27.5456 20.8638 26.9323 21.0628C26.4623 21.2166 23.4128 14.6576 23.4565 13.5096C23.4901 12.5044 24.4514 8 25.0545 8C25.4746 8 25.7351 9.95917 26.0199 12.1113C26.3637 14.7078 26.7451 17.5848 27.4907 17.64C27.7623 17.6561 28.0725 16.9595 28.3858 16.2589C28.7012 15.5482 29.0196 14.8345 29.3013 14.8566M17.0716 25.1319C17.4785 25.6818 17.8762 26.2176 18.1875 26.6006C19.7051 24.9198 22.3946 23.227 24.608 22.4762C29.2667 20.8859 34.1838 21.5041 37.0218 23.6241C38.0512 24.3961 38.397 24.7942 38.9778 25.4606C39.598 26.1806 40.2459 26.8752 40.9217 27.5445C41.1455 27.7726 41.6765 27.9465 42.2237 28.1255C42.6306 28.2592 43.0476 28.3949 43.3579 28.5597C45.2905 29.6202 47.2232 32.9324 46.9791 33.2863C46.8478 33.4712 46.5112 33.4853 46.0321 33.5034C45.3994 33.5285 44.5164 33.5627 43.5257 34.0151C42.3956 34.5297 41.83 35.0122 41.3031 35.4616C41.0855 35.6475 40.8739 35.8275 40.6318 36.0024C38.0278 37.9123 30.5881 40.4746 29.0104 40.75L28.9158 40.7621C26.7502 41.0365 21.3998 41.714 18.3503 38.1666C16.0189 35.4555 16.2141 30.916 17.0543 28.4823C14.5968 27.6701 7.61076 24.3459 7.01977 23.4472C6.37182 22.4872 5.64555 15.6296 6.19279 15.3863C6.43082 15.2828 7.53548 16.8419 8.87411 18.7307C10.9329 21.6378 13.5461 25.3259 14.4056 24.9379C14.6904 24.8062 14.7046 24.3639 14.7209 23.9056C14.7352 23.4452 14.7514 22.9677 15.0423 22.7737C15.2315 22.6521 16.1765 23.9257 17.0706 25.1319" fill="rgb(41,41,41)" fill-rule="evenodd" />
	<path id="矢量 4" d="M23.7398 31.2876C24.9078 32.983 26.5772 33.8907 27.4676 33.3184C28.3468 32.746 28.1128 30.8991 26.9449 29.2027C25.7769 27.5062 24.1065 26.5985 23.2171 27.1719C22.3379 27.755 22.5719 29.5911 23.7398 31.2876ZM4 37.3485C4.00051 36.7811 4.12974 36.2429 4.3877 35.7338C4.64565 35.2247 5.00594 34.7968 5.46856 34.4502C5.93118 34.1035 6.4488 33.8735 7.02143 33.7602C7.59406 33.6469 8.1631 33.6619 8.72856 33.8052C8.90535 32.8784 9.36695 32.1136 10.1134 31.5109C10.8598 30.9082 11.7184 30.6069 12.6893 30.607C13.6604 30.6065 14.5193 30.9076 15.266 31.5104C16.0127 32.1132 16.4744 32.8781 16.651 33.8052L16.7847 33.8052C17.8081 33.8049 18.6816 34.156 19.4052 34.8585C20.1288 35.5611 20.4905 36.4091 20.4902 37.4026C20.489 38.3103 20.1792 39.1046 19.5607 39.7854C18.9422 40.4662 18.1691 40.8638 17.2416 40.9784L7.50489 41C6.51743 40.9328 5.68627 40.5477 5.01143 39.8446C4.33658 39.1416 3.99944 38.3095 4 37.3485" fill="rgb(255,255,255)" fill-rule="evenodd" />
</svg>
