<svg width="64" height="64" viewBox="0 0 512 512" fill="none" xmlns="http://www.w3.org/2000/svg"><path d="M471.42 74.78l-95.657-47.19a29.334 29.334 0 00-33.161 6.377L30.125 319.66a19.135 19.135 0 000 28.06l25.508 22.957a19.137 19.137 0 0012.51 5.518 19.138 19.138 0 0012.998-4.242L457.39 86.259C470.144 77.33 488 84.983 488 101.564v-1.276c0-11.478-6.377-21.682-16.58-25.508z" fill="#27B"/><path d="M471.42 438.275l-95.657 45.915a29.336 29.336 0 01-33.161-6.377L30.125 193.394a19.13 19.13 0 010-28.059l25.508-24.233a19.134 19.134 0 0125.508-1.275L457.39 425.52c12.754 10.204 30.61 1.276 30.61-15.305v1.276c0 11.479-6.377 21.682-16.58 26.784z" fill="#08C"/><path d="M375.763 484.189a29.338 29.338 0 01-33.161-6.377c11.479 11.479 29.335 3.827 29.335-11.479V46.721c0-15.305-17.856-24.233-29.335-12.755a29.334 29.334 0 0134.437-5.101l95.656 45.915C481.623 78.606 488 88.81 488 100.288V411.49c0 11.479-6.377 21.683-15.305 26.784" fill="#19F"/></svg>